<?xml version="1.0" encoding="utf-8"?>
<!-- Generator: Adobe Illustrator 25.0.1, SVG Export Plug-In . SVG Version: 6.00 Build 0)  -->
<svg version="1.1" id="Layer_1" xmlns="http://www.w3.org/2000/svg" xmlns:xlink="http://www.w3.org/1999/xlink" x="0px" y="0px"
	 viewBox="0 0 114.4 75.8" style="enable-background:new 0 0 114.4 75.8;" xml:space="preserve">
<style type="text/css">
	.st0{fill:#0075C9;}
</style>
<g id="Layer_2_2_">
	<g id="Layer_2_1_">
		<path d="M97.8,50.5c-3.4,0-4.8,2.4-4.8,4.2v5.9h2.5v-5.8c0-1.4,1.1-2,2.3-2s2.3,0.6,2.3,2v5.8h2.5v-5.8c0-1.4,1.1-2,2.3-2
			s2.3,0.6,2.3,2v5.8h2.5v-5.9c0-1.7-1.3-4.2-4.8-4.2c-1.8,0-2.9,0.7-3.5,1.6C100.7,51.2,99.6,50.5,97.8,50.5 M84.4,49.8h0.8
			c0.8-0.6,1.8-1.7,2.1-2.9h-1.6C85.6,47.8,85.1,48.9,84.4,49.8z M85.9,58.6c-1.5,0-2.5-0.8-2.8-2.1h8.1c0-0.3,0-0.5,0-0.8
			c0-3-2.1-5.1-5.3-5.1s-5.4,2-5.4,5.1s2.2,5.1,5.4,5.1c2.5,0,4.3-1.2,5-3.2h-2.7C87.8,58.2,87,58.6,85.9,58.6z M83.3,54.3
			c0.4-1,1.4-1.5,2.6-1.5s2.2,0.6,2.6,1.5H83.3z M74.5,55v5.5H77V55c0-1.6,1-2.3,2.7-2.3v-2.2C76.5,50.5,74.5,52.1,74.5,55z
			 M70,55.7c0,1.8-1.1,2.9-2.9,2.9c-1.7,0-2.9-1.1-2.9-2.9c0-1.8,1.1-2.9,2.9-2.9C68.8,52.7,70,53.8,70,55.7z M67.1,50.6
			c-3.2,0-5.3,2-5.3,5.1s2.2,5.1,5.2,5.1c1.5,0,2.6-0.5,3.1-1.1v0.9h2.5v-4.9C72.5,52.6,70.3,50.6,67.1,50.6z M60.6,58.5
			c-1.9,0-2.7-0.7-2.7-2.5v-3.1h2.4v-2.2h-2.4v-3.9h-2.5v9.3c0,3,1.8,4.7,5.2,4.7V58.5z M48.7,50.5c-3.4,0-4.8,2.4-4.8,4.2v5.9h2.5
			v-5.8c0-1.4,1.1-2,2.3-2s2.3,0.6,2.3,2v5.8h2.5v-5.9C53.5,53,52.1,50.5,48.7,50.5z M39.4,55.7c0,1.8-1.1,2.9-2.9,2.9
			c-1.7,0-2.9-1.1-2.9-2.9c0-1.8,1.1-2.9,2.9-2.9C38.3,52.7,39.4,53.8,39.4,55.7z M36.5,50.6c-3.2,0-5.3,2-5.3,5.1s2.2,5.1,5.2,5.1
			c1.5,0,2.6-0.5,3.1-1.1v0.9H42v-4.9C41.9,52.6,39.7,50.6,36.5,50.6z M24.1,53.4c0-0.4,0.4-0.7,1.2-0.7s1.9,0.3,3,1.2l1.3-1.8
			c-0.9-0.7-2.3-1.5-4.3-1.5c-2.3,0-3.8,1-3.8,2.9c0,3.6,5.6,2.6,5.6,4.3c0,0.6-0.6,0.8-1.5,0.8c-1,0-2.1-0.4-3-1.2l-1.3,1.9
			c0.6,0.6,2.1,1.5,4.2,1.5c2.4,0,4-1.1,4-3.1C29.8,53.9,24.1,54.8,24.1,53.4z"/>
		<path d="M105.2,67.6c0-1.2,0.6-1.9,1.7-1.9s1.7,0.7,1.7,1.9s-0.6,1.9-1.7,1.9S105.2,68.8,105.2,67.6 M104.3,67.6
			c0,1.7,1,2.8,2.7,2.8s2.7-1.1,2.7-2.8s-1-2.8-2.7-2.8S104.3,66,104.3,67.6z M99,67.6c0,1.7,1,2.8,2.7,2.8c0.9,0,1.6-0.4,2.1-1
			l-0.8-0.5c-0.3,0.4-0.8,0.6-1.4,0.6c-1.1,0-1.7-0.7-1.7-1.9s0.6-1.9,1.7-1.9c0.6,0,1,0.2,1.4,0.6l0.8-0.5c-0.5-0.6-1.2-1-2.1-1
			C100,64.9,99,66,99,67.6z M97.2,70.3h0.9V65h-0.9V70.3z M95.4,70.3h1V65h-0.9v3.6l-2-3.6h-1v5.3h0.9v-3.6L95.4,70.3z M86.9,67.6
			c0,1.7,1,2.8,2.7,2.8c0.9,0,1.6-0.4,2.1-1l-0.8-0.5c-0.3,0.4-0.8,0.6-1.4,0.6c-1.1,0-1.7-0.7-1.7-1.9s0.6-1.9,1.7-1.9
			c0.6,0,1,0.2,1.4,0.6l0.8-0.5c-0.5-0.6-1.2-1-2.1-1C87.9,64.9,86.9,66,86.9,67.6z M83.9,64.6h0.3c0.3-0.2,0.7-0.6,0.8-1.1h-0.6
			C84.4,63.8,84.2,64.3,83.9,64.6z M82.8,70.3h3.6v-0.9h-2.7v-1.5h2.2V67h-2.2v-1.2h2.6v-0.9h-3.6L82.8,70.3L82.8,70.3z M79.5,70.3
			h0.9v-4.4H82V65h-4.1v0.9h1.6V70.3z M76.2,70.3h0.9V65h-0.9V70.3z M72,70.3h3.5v-0.9H73V65h-0.9L72,70.3L72,70.3z M66.8,67.6
			c0-1.2,0.6-1.9,1.7-1.9s1.7,0.7,1.7,1.9s-0.6,1.9-1.7,1.9C67.5,69.5,66.8,68.8,66.8,67.6z M65.9,67.6c0,1.7,1,2.8,2.7,2.8
			c1.6,0,2.7-1.1,2.7-2.8s-1-2.8-2.7-2.8C66.9,64.9,65.9,66,65.9,67.6z M63.2,68h-1.4v-2.2h1.4c0.6,0,1.1,0.4,1.1,1.1
			S63.9,68,63.2,68z M60.9,70.3h0.9v-1.4h1.4c1.2,0,1.9-0.8,1.9-2S64.3,65,63.2,65h-2.4L60.9,70.3L60.9,70.3z M53.9,67.6
			c0-1.2,0.6-1.9,1.7-1.9c1.1,0,1.7,0.7,1.7,1.9s-0.6,1.9-1.7,1.9C54.6,69.5,53.9,68.8,53.9,67.6z M53,67.6c0,1.7,1,2.8,2.7,2.8
			c1.6,0,2.7-1.1,2.7-2.8s-1-2.8-2.7-2.8C54,64.9,53,66,53,67.6z M50.2,70.3h0.9v-4.4h1.6V65h-4.1v0.9h1.6V70.3z M45.7,70.4
			L45.7,70.4c1.3,0,2.1-0.8,2.1-2V65h-0.9v3.5c0,0.7-0.4,1-1.2,1c-0.7,0-1.2-0.4-1.2-1V65h-0.9v3.4C43.6,69.6,44.5,70.4,45.7,70.4z
			 M40.4,70.3h0.9v-4.4h1.6V65h-4.1v0.9h1.6V70.3z M37.1,70.3H38V65h-0.9V70.3z M33.9,70.3h0.9v-4.4h1.6V65h-4.1v0.9h1.6V70.3z
			 M31.7,68.7c0-2-2.9-1.3-2.9-2.4c0-0.3,0.3-0.6,0.9-0.6c0.5,0,0.9,0.1,1.4,0.5l0.5-0.7c-0.5-0.4-1.1-0.7-2-0.7
			c-1.2,0-1.8,0.6-1.8,1.5c0,1.9,2.9,1.1,2.9,2.4c0,0.3-0.2,0.7-0.9,0.7c-0.6,0-1-0.2-1.4-0.6l-0.6,0.7c0.4,0.4,1.1,0.8,2,0.8
			C31.2,70.4,31.7,69.7,31.7,68.7z M26.1,70.3h1V65h-0.9v3.6l-2-3.6h-1v5.3h0.9v-3.6L26.1,70.3z M21.4,70.3h0.9V65h-0.9V70.3z"/>
	</g>
</g>
<g>
	<ellipse transform="matrix(0.7071 -0.7071 0.7071 0.7071 -35.9933 24.1045)" class="st0" cx="11.1" cy="55.5" rx="7.4" ry="7.4"/>
	<rect x="6.7" y="7.7" class="st0" width="8.8" height="34.8"/>
	<path class="st0" d="M31,17.1c0-1.4,1.5-2.3,4.4-2.3c3,0,6.8,1,10.7,4.1l4.7-6.5c-3.2-2.5-8-5.3-15.2-5.3
		c-8.3,0-13.3,3.7-13.3,10.1c0,12.7,19.9,9,19.9,15c0,2-2.3,3-5.3,3c-3.6,0-7.5-1.4-10.5-4.2l-4.7,6.5c2.3,1.9,7.2,5.3,15,5.3
		C45,42.8,51,39,51,31.9C50.8,19,31,22.2,31,17.1z"/>
	<rect x="56.7" y="3.2" class="st0" width="8.8" height="39.3"/>
	<path class="st0" d="M90.5,7.2c-11.3,0-18.9,7.2-18.9,17.9c0,10.8,7.6,18,18.2,18c5.3,0,9.1-1.8,10.8-4v3.3h8.8V25.2
		C109.4,14.5,101.8,7.2,90.5,7.2z M90.5,35c-5.4,0-9.8-4.4-9.8-9.8c0-5.4,4.4-9.8,9.8-9.8s9.8,4.4,9.8,9.8
		C100.3,30.6,95.9,35,90.5,35z"/>
</g>
</svg>
